<svg width="932" height="350" viewBox="0 0 932 350" fill="none" xmlns="http://www.w3.org/2000/svg">
<path d="M174.798 349.689C78.5503 349.689 0 271.429 0 174.845C0 78.2608 78.2399 0 174.798 0C271.356 0 349.596 78.2608 349.596 174.845C349.596 271.429 271.045 349.689 174.798 349.689ZM174.798 58.6957C110.529 58.6957 58.3694 110.87 58.3694 175.155C58.3694 239.441 110.529 291.615 174.798 291.615C239.066 291.615 291.226 239.441 291.226 175.155C291.226 110.87 238.756 58.6957 174.798 58.6957Z" fill="#000B4F"/>
<path d="M465.713 349.689C369.466 349.689 290.916 271.429 290.916 174.845C290.916 78.2608 369.155 0 465.713 0C512.285 0 556.062 18.323 589.283 51.2422L547.989 92.5466C525.946 70.4969 496.761 58.3851 465.713 58.3851C401.445 58.3851 349.285 110.559 349.285 174.845C349.285 239.13 401.445 291.304 465.713 291.304C496.761 291.304 525.946 279.193 547.989 257.143L589.283 298.447C556.062 331.366 512.285 349.689 465.713 349.689Z" fill="#000B4F"/>
<path d="M928.943 145.963H756.629V204.348H869.332C856.292 254.658 810.652 291.615 756.629 291.615C692.361 291.615 640.201 239.441 640.201 175.155C640.201 110.87 692.361 58.6956 756.629 58.6956H785.814V0.310516H756.629C660.382 0.310516 581.831 78.5714 581.831 175.155C581.831 271.739 660.071 350 756.629 350C853.187 350 931.427 271.739 931.427 175.155C931.427 165.217 930.495 155.59 928.943 145.963Z" fill="#000B4F"/>
</svg>
